<svg id="Layer_1" xmlns="http://www.w3.org/2000/svg" xmlns:xlink="http://www.w3.org/1999/xlink" width="160" height="160" viewBox="0 0 160 160" enable-background="new 0 0 160 160"><g transform="translate(0.000000, -1.000000)" display="none"><path display="inline" fill="#b3b3b3" d="M80.773 6.551 10.2 31.388l11.152 92.463 59.497 32.699 59.804-33.142 11.148-92.461L80.773 6.551z"/><path display="inline" fill="#a6120d" d="M144.76 36.292 80.609 14.416V148.74l53.761-29.755L144.76 36.292z"/><path display="inline" fill="#dd1b16" d="M18.119 36.687l9.557 82.693 52.932 29.359V14.413L18.119 36.687z"/><path display="inline" fill="#f2f2f2" d="M98.268 85.922 80.609 94.18H61.997l-8.75 21.884-16.273.301 43.635-97.071L98.268 85.922v0zM96.561 81.765 80.725 50.417 67.737 81.226h12.87L96.561 81.765v0z"/><path display="inline" fill="#b3b3b3" d="M80.607 19.293l.118 31.124L95.463 81.25H80.642l-.034 12.91 20.495.02 9.579 22.188 15.57.289L80.607 19.293z"/></g><g><path fill="#41b883" d="M125 19.712h30L80 149.088 5 19.712h29.625 27.75l17.625 30 17.25-30H125z"/><path fill="#41b883" d="M5 19.712l75 129.375 75-129.375h-30L80 97.338 34.625 19.712H5z"/><path fill="#35495e" d="M34.625 19.712l45.375 78 45-78H97.25l-17.25 30-17.625-30H34.625z"/></g></svg>